<?xml version="1.0" encoding="UTF-8" standalone="no"?><!-- Generator: Gravit.io --><svg xmlns="http://www.w3.org/2000/svg" xmlns:xlink="http://www.w3.org/1999/xlink" style="isolation:isolate" viewBox="0 0 198 198" width="198pt" height="198pt"><defs><clipPath id="_clipPath_RKE4yS0RWmmChHjzFWGUd91c3DX6XQuJ"><rect width="198" height="198"/></clipPath></defs><g clip-path="url(#_clipPath_RKE4yS0RWmmChHjzFWGUd91c3DX6XQuJ)"><path d=" M 158.16 102.344 L 131.936 103.138 L 131.936 103.138 Q 131.217 101.119 130.489 99.091 L 130.489 99.091 L 130.489 99.091 Q 125.421 84.973 120.443 71.488 L 120.443 71.488 L 120.443 71.488 Q 115.466 58.004 111.122 47.506 L 111.122 47.506 L 111.122 47.506 Q 110.217 44.972 106.868 43.886 L 106.868 43.886 L 106.868 43.886 Q 103.52 42.8 99.9 42.8 L 99.9 42.8 L 99.9 42.8 Q 96.823 42.8 93.927 43.524 L 93.927 43.524 L 93.927 43.524 Q 91.031 44.248 89.583 44.972 L 89.583 44.972 L 89.583 44.972 Q 85.239 55.832 80.08 69.497 L 80.08 69.497 L 80.08 69.497 Q 74.922 83.163 69.944 96.647 L 69.944 96.647 L 69.944 96.647 Q 68.353 100.958 66.836 105.111 L 66.836 105.111 L 26.505 106.333 L 26.505 106.333 C 25.309 106.333 24.338 107.304 24.338 108.5 L 24.338 108.5 C 24.338 109.696 25.309 110.667 26.505 110.667 L 26.505 110.667 L 151.218 114.446 C 151.506 114.587 151.829 114.667 152.171 114.667 L 152.171 114.667 L 158.16 114.667 L 158.16 121.36 C 158.16 122.15 158.47 122.92 159.04 123.48 C 159.6 124.04 160.36 124.36 161.16 124.36 C 161.95 124.36 162.72 124.04 163.28 123.48 C 163.84 122.92 164.16 122.15 164.16 121.36 L 164.16 121.36 L 164.16 114.838 L 169.105 114.988 L 169.105 114.988 C 169.237 114.996 169.37 115 169.505 115 L 169.505 115 C 173.092 115 176.005 112.087 176.005 108.5 C 176.005 104.913 173.092 102 169.505 102 L 169.505 102 C 169.37 102 169.237 102.004 169.105 102.012 L 167.16 102.071 L 167.16 106.333 L 168.022 106.333 L 168.022 106.333 C 169.217 106.333 170.188 107.304 170.188 108.5 C 170.188 109.423 169.61 110.211 168.785 110.5 C 168.556 110.384 168.295 110.333 168.022 110.333 L 168.022 110.333 L 164.16 110.333 L 164.16 99 L 164.16 99 C 164.16 95.31 165.63 91.76 168.24 89.15 C 170.85 86.54 174.39 85.08 178.08 85.08 C 181.77 85.08 185.32 86.54 187.93 89.15 C 190.54 91.76 192 95.31 192 99 L 192 99 L 192 99 L 192 99 C 192.01 111.43 189.53 123.73 184.69 135.18 C 180.01 146.23 173.24 156.27 164.75 164.75 C 156.27 173.24 146.23 180.01 135.19 184.69 C 123.74 189.52 111.43 192.01 99 192 C 86.58 192.01 74.27 189.52 62.82 184.69 C 51.77 180.01 41.74 173.24 33.26 164.75 C 24.77 156.27 18 146.23 13.32 135.18 C 8.48 123.73 5.99 111.43 6 99 C 5.99 86.57 8.48 74.27 13.32 62.82 C 18 51.77 24.77 41.73 33.26 33.25 C 41.74 24.76 51.77 17.99 62.82 13.31 C 74.27 8.48 86.58 5.99 99 6 C 109.18 5.99 119.3 7.66 128.94 10.93 C 138.24 14.1 146.97 18.72 154.82 24.63 C 170.58 36.46 182.19 53 187.95 71.84 C 188.18 72.6 188.71 73.24 189.41 73.61 C 190.11 73.99 190.94 74.07 191.7 73.83 C 192.46 73.6 193.1 73.07 193.47 72.37 C 193.84 71.67 193.92 70.85 193.69 70.09 C 187.55 50.03 175.2 32.43 158.43 19.84 C 150.07 13.54 140.77 8.62 130.87 5.25 C 120.61 1.77 109.84 -0.01 99 0 C 85.77 -0.01 72.67 2.64 60.48 7.79 C 48.73 12.77 38.04 19.98 29.01 29.01 C 19.98 38.04 12.77 48.72 7.79 60.48 C 2.64 72.67 -0.01 85.77 0 99 C -0.01 112.23 2.64 125.33 7.79 137.52 C 12.77 149.28 19.98 159.96 29.01 168.99 C 38.04 178.02 48.73 185.23 60.48 190.21 C 72.67 195.36 85.77 198.01 99 198 C 112.24 198.01 125.34 195.36 137.53 190.21 C 149.28 185.23 159.97 178.02 168.99 168.99 C 178.03 159.96 185.24 149.28 190.22 137.52 C 195.37 125.33 198.01 112.23 198 99 L 198 99 C 198 93.72 195.9 88.65 192.17 84.91 C 188.43 81.18 183.36 79.08 178.08 79.08 C 172.8 79.08 167.73 81.18 163.99 84.91 C 160.26 88.65 158.16 93.72 158.16 99 L 158.16 102.344 Z  M 158.16 106.333 L 152.171 106.333 L 152.171 106.333 L 152.171 106.333 C 150.975 106.333 150.005 107.304 150.005 108.5 L 150.005 108.5 C 150.005 109.423 150.582 110.211 151.408 110.5 C 151.636 110.384 151.898 110.333 152.171 110.333 L 152.171 110.333 L 152.171 110.333 L 152.171 110.333 L 158.16 110.333 L 158.16 106.333 Z  M 117.222 103.584 Q 115.911 99.764 114.561 95.923 L 114.561 95.923 L 114.561 95.923 Q 111.665 87.688 109.04 80.086 L 109.04 80.086 L 109.04 80.086 Q 106.416 72.484 104.153 66.058 L 104.153 66.058 L 104.153 66.058 Q 101.891 59.633 100.443 55.108 L 100.443 55.108 L 99.719 55.108 L 99.719 55.108 Q 97.728 60.538 95.194 67.506 L 95.194 67.506 L 95.194 67.506 Q 92.66 74.475 89.945 82.077 L 89.945 82.077 L 89.945 82.077 Q 87.23 89.679 84.515 97.462 L 84.515 97.462 L 84.515 97.462 Q 83.233 101.137 82.031 104.651 L 117.222 103.584 L 117.222 103.584 Z  M 78.157 116.232 L 75.465 124.431 L 75.465 124.431 Q 74.198 128.051 72.75 132.304 L 72.75 132.304 L 72.75 132.304 Q 71.302 136.558 69.944 140.63 L 69.944 140.63 L 69.944 140.63 Q 68.587 144.703 67.32 148.232 L 67.32 148.232 L 67.32 148.232 Q 66.053 151.762 65.329 154.115 L 65.329 154.115 L 65.329 154.115 Q 62.795 155.201 59.356 155.201 L 59.356 155.201 L 59.356 155.201 Q 56.46 155.201 54.197 153.662 L 54.197 153.662 L 54.197 153.662 Q 51.935 152.124 51.935 148.685 L 51.935 148.685 L 51.935 148.685 Q 51.935 147.056 52.478 145.336 L 52.478 145.336 L 52.478 145.336 Q 53.021 143.617 53.745 141.626 L 53.745 141.626 L 53.745 141.626 Q 56.46 134.024 60.713 122.078 L 60.713 122.078 L 60.713 122.078 Q 61.817 118.976 62.97 115.772 L 78.157 116.232 L 78.157 116.232 L 78.157 116.232 Z  M 137.151 118.02 Q 138.685 122.47 140.172 126.874 L 140.172 126.874 L 140.172 126.874 Q 144.788 140.54 148.408 151.581 L 148.408 151.581 L 148.408 151.581 Q 146.96 153.21 144.969 154.205 L 144.969 154.205 L 144.969 154.205 Q 142.978 155.201 140.444 155.201 L 140.444 155.201 L 140.444 155.201 Q 137.005 155.201 135.195 153.662 L 135.195 153.662 L 135.195 153.662 Q 133.385 152.124 132.118 148.504 L 132.118 148.504 L 123.973 124.431 L 121.818 117.555 L 137.151 118.02 L 137.151 118.02 L 137.151 118.02 Z " fill-rule="evenodd" fill="rgb(255,255,255)"/></g></svg>