<?xml version="1.0" encoding="UTF-8" standalone="no"?><!-- Generator: Gravit.io --><svg xmlns="http://www.w3.org/2000/svg" xmlns:xlink="http://www.w3.org/1999/xlink" style="isolation:isolate" viewBox="0 0 841.209 198" width="841.209pt" height="198pt"><defs><clipPath id="_clipPath_ehsG0OmrBBAOxj3mBjEWlctOJvT4TwwM"><rect width="841.209" height="198"/></clipPath></defs><g clip-path="url(#_clipPath_ehsG0OmrBBAOxj3mBjEWlctOJvT4TwwM)"><path d=" M 535.009 152.124 L 526.864 128.051 L 478.356 128.051 L 478.356 128.051 Q 477.089 131.671 475.641 135.924 L 475.641 135.924 L 475.641 135.924 Q 474.193 140.178 472.836 144.25 L 472.836 144.25 L 472.836 144.25 Q 471.478 148.323 470.211 151.852 L 470.211 151.852 L 470.211 151.852 Q 468.944 155.382 468.22 157.735 L 468.22 157.735 L 468.22 157.735 Q 465.686 158.821 462.247 158.821 L 462.247 158.821 L 462.247 158.821 Q 459.351 158.821 457.088 157.282 L 457.088 157.282 L 457.088 157.282 Q 454.826 155.744 454.826 152.305 L 454.826 152.305 L 454.826 152.305 Q 454.826 150.676 455.369 148.956 L 455.369 148.956 L 455.369 148.956 Q 455.912 147.237 456.636 145.246 L 456.636 145.246 L 456.636 145.246 Q 459.351 137.644 463.604 125.698 L 463.604 125.698 L 463.604 125.698 Q 467.858 113.752 472.836 100.267 L 472.836 100.267 L 472.836 100.267 Q 477.813 86.783 482.971 73.117 L 482.971 73.117 L 482.971 73.117 Q 488.13 59.452 492.474 48.592 L 492.474 48.592 L 492.474 48.592 Q 493.922 47.868 496.818 47.144 L 496.818 47.144 L 496.818 47.144 Q 499.714 46.42 502.791 46.42 L 502.791 46.42 L 502.791 46.42 Q 506.411 46.42 509.76 47.506 L 509.76 47.506 L 509.76 47.506 Q 513.108 48.592 514.013 51.126 L 514.013 51.126 L 514.013 51.126 Q 518.357 61.624 523.335 75.108 L 523.335 75.108 L 523.335 75.108 Q 528.312 88.593 533.38 102.711 L 533.38 102.711 L 533.38 102.711 Q 538.448 116.829 543.064 130.494 L 543.064 130.494 L 543.064 130.494 Q 547.679 144.16 551.299 155.201 L 551.299 155.201 L 551.299 155.201 Q 549.851 156.83 547.86 157.825 L 547.86 157.825 L 547.86 157.825 Q 545.869 158.821 543.335 158.821 L 543.335 158.821 L 543.335 158.821 Q 539.896 158.821 538.086 157.282 L 538.086 157.282 L 538.086 157.282 Q 536.276 155.744 535.009 152.124 L 535.009 152.124 Z  M 503.334 58.728 L 502.61 58.728 L 502.61 58.728 Q 500.619 64.158 498.085 71.126 L 498.085 71.126 L 498.085 71.126 Q 495.551 78.095 492.836 85.697 L 492.836 85.697 L 492.836 85.697 Q 490.121 93.299 487.406 101.082 L 487.406 101.082 L 487.406 101.082 Q 484.691 108.865 482.338 115.924 L 482.338 115.924 L 523.063 115.924 L 523.063 115.924 Q 520.348 107.779 517.452 99.543 L 517.452 99.543 L 517.452 99.543 Q 514.556 91.308 511.932 83.706 L 511.932 83.706 L 511.932 83.706 Q 509.307 76.104 507.044 69.678 L 507.044 69.678 L 507.044 69.678 Q 504.782 63.253 503.334 58.728 L 503.334 58.728 Z  M 621.98 45.334 L 621.98 143.617 L 621.98 143.617 Q 621.98 147.237 620.442 149.228 L 620.442 149.228 L 620.442 149.228 Q 618.903 151.219 615.645 153.21 L 615.645 153.21 L 615.645 153.21 Q 612.025 155.563 605.328 157.644 L 605.328 157.644 L 605.328 157.644 Q 598.631 159.726 589.943 159.726 L 589.943 159.726 L 589.943 159.726 Q 580.169 159.726 572.024 157.192 L 572.024 157.192 L 572.024 157.192 Q 563.879 154.658 557.997 149.318 L 557.997 149.318 L 557.997 149.318 Q 552.114 143.979 548.947 135.743 L 548.947 135.743 L 548.947 135.743 Q 545.779 127.508 545.779 115.924 L 545.779 115.924 L 545.779 115.924 Q 545.779 104.159 549.037 95.742 L 549.037 95.742 L 549.037 95.742 Q 552.295 87.326 557.815 81.896 L 557.815 81.896 L 557.815 81.896 Q 563.336 76.466 570.848 73.932 L 570.848 73.932 L 570.848 73.932 Q 578.359 71.398 586.866 71.398 L 586.866 71.398 L 586.866 71.398 Q 592.658 71.398 598.088 72.846 L 598.088 72.846 L 598.088 72.846 Q 603.518 74.294 607.5 76.466 L 607.5 76.466 L 607.5 40.085 L 607.5 40.085 Q 608.405 39.723 610.305 39.27 L 610.305 39.27 L 610.305 39.27 Q 612.206 38.818 614.197 38.818 L 614.197 38.818 L 614.197 38.818 Q 621.98 38.818 621.98 45.334 L 621.98 45.334 Z  M 607.5 143.074 L 607.5 89.498 L 607.5 89.498 Q 603.88 86.964 599.174 85.154 L 599.174 85.154 L 599.174 85.154 Q 594.468 83.344 588.314 83.344 L 588.314 83.344 L 588.314 83.344 Q 582.703 83.344 577.726 85.063 L 577.726 85.063 L 577.726 85.063 Q 572.748 86.783 568.947 90.674 L 568.947 90.674 L 568.947 90.674 Q 565.146 94.566 562.883 100.901 L 562.883 100.901 L 562.883 100.901 Q 560.621 107.236 560.621 116.286 L 560.621 116.286 L 560.621 116.286 Q 560.621 132.938 568.585 140.359 L 568.585 140.359 L 568.585 140.359 Q 576.549 147.779 589.762 147.779 L 589.762 147.779 L 589.762 147.779 Q 596.097 147.779 600.169 146.422 L 600.169 146.422 L 600.169 146.422 Q 604.242 145.065 607.5 143.074 L 607.5 143.074 Z  M 731.558 100.539 L 731.558 100.539 L 731.558 100.539 Q 731.558 91.67 726.49 87.507 L 726.49 87.507 L 726.49 87.507 Q 721.422 83.344 712.915 83.344 L 712.915 83.344 L 712.915 83.344 Q 701.15 83.344 691.919 91.67 L 691.919 91.67 L 691.919 91.67 Q 693.005 95.29 693.005 99.453 L 693.005 99.453 L 693.005 157.011 L 693.005 157.011 Q 692.1 157.373 690.2 157.825 L 690.2 157.825 L 690.2 157.825 Q 688.299 158.278 686.308 158.278 L 686.308 158.278 L 686.308 158.278 Q 678.525 158.278 678.525 151.762 L 678.525 151.762 L 678.525 100.539 L 678.525 100.539 Q 678.525 91.67 673.457 87.507 L 673.457 87.507 L 673.457 87.507 Q 668.389 83.344 659.701 83.344 L 659.701 83.344 L 659.701 83.344 Q 653.909 83.344 648.75 85.154 L 648.75 85.154 L 648.75 85.154 Q 643.592 86.964 639.972 89.317 L 639.972 89.317 L 639.972 157.011 L 639.972 157.011 Q 639.067 157.373 637.257 157.825 L 637.257 157.825 L 637.257 157.825 Q 635.447 158.278 633.275 158.278 L 633.275 158.278 L 633.275 158.278 Q 625.492 158.278 625.492 151.762 L 625.492 151.762 L 625.492 90.041 L 625.492 90.041 Q 625.492 86.421 627.031 83.977 L 627.031 83.977 L 627.031 83.977 Q 628.569 81.534 632.37 79 L 632.37 79 L 632.37 79 Q 637.257 75.923 644.768 73.66 L 644.768 73.66 L 644.768 73.66 Q 652.28 71.398 659.882 71.398 L 659.882 71.398 L 659.882 71.398 Q 668.751 71.398 675.629 74.022 L 675.629 74.022 L 675.629 74.022 Q 682.507 76.647 686.127 81.172 L 686.127 81.172 L 686.127 81.172 Q 690.833 77.009 697.892 74.203 L 697.892 74.203 L 697.892 74.203 Q 704.951 71.398 714.001 71.398 L 714.001 71.398 L 714.001 71.398 Q 728.662 71.398 737.35 78.366 L 737.35 78.366 L 737.35 78.366 Q 746.038 85.335 746.038 99.815 L 746.038 99.815 L 746.038 157.011 L 746.038 157.011 Q 745.133 157.373 743.232 157.825 L 743.232 157.825 L 743.232 157.825 Q 741.332 158.278 739.341 158.278 L 739.341 158.278 L 739.341 158.278 Q 731.558 158.278 731.558 151.762 L 731.558 151.762 L 731.558 100.539 Z  M 764.573 79.543 L 764.573 157.011 L 764.573 157.011 Q 763.668 157.373 761.858 157.825 L 761.858 157.825 L 761.858 157.825 Q 760.048 158.278 757.876 158.278 L 757.876 158.278 L 757.876 158.278 Q 750.093 158.278 750.093 151.762 L 750.093 151.762 L 750.093 74.113 L 750.093 74.113 Q 750.998 73.751 752.898 73.298 L 752.898 73.298 L 752.898 73.298 Q 754.799 72.846 756.971 72.846 L 756.971 72.846 L 756.971 72.846 Q 764.573 72.846 764.573 79.543 L 764.573 79.543 Z  M 747.921 47.325 L 747.921 47.325 L 747.921 47.325 Q 747.921 43.524 750.546 40.899 L 750.546 40.899 L 750.546 40.899 Q 753.17 38.275 757.333 38.275 L 757.333 38.275 L 757.333 38.275 Q 761.496 38.275 764.03 40.899 L 764.03 40.899 L 764.03 40.899 Q 766.564 43.524 766.564 47.325 L 766.564 47.325 L 766.564 47.325 Q 766.564 51.126 764.03 53.75 L 764.03 53.75 L 764.03 53.75 Q 761.496 56.375 757.333 56.375 L 757.333 56.375 L 757.333 56.375 Q 753.17 56.375 750.546 53.75 L 750.546 53.75 L 750.546 53.75 Q 747.921 51.126 747.921 47.325 Z  M 826.729 102.891 L 826.729 102.891 L 826.729 102.891 Q 826.729 92.756 821.028 88.05 L 821.028 88.05 L 821.028 88.05 Q 815.326 83.344 805.733 83.344 L 805.733 83.344 L 805.733 83.344 Q 798.493 83.344 792.882 85.154 L 792.882 85.154 L 792.882 85.154 Q 787.271 86.964 783.289 89.317 L 783.289 89.317 L 783.289 157.011 L 783.289 157.011 Q 782.384 157.373 780.574 157.825 L 780.574 157.825 L 780.574 157.825 Q 778.764 158.278 776.592 158.278 L 776.592 158.278 L 776.592 158.278 Q 768.809 158.278 768.809 151.762 L 768.809 151.762 L 768.809 90.041 L 768.809 90.041 Q 768.809 86.24 770.348 83.796 L 770.348 83.796 L 770.348 83.796 Q 771.886 81.353 775.687 79 L 775.687 79 L 775.687 79 Q 780.393 76.104 788.176 73.751 L 788.176 73.751 L 788.176 73.751 Q 795.959 71.398 805.733 71.398 L 805.733 71.398 L 805.733 71.398 Q 822.204 71.398 831.706 78.819 L 831.706 78.819 L 831.706 78.819 Q 841.209 86.24 841.209 102.168 L 841.209 102.168 L 841.209 157.011 L 841.209 157.011 Q 840.304 157.373 838.403 157.825 L 838.403 157.825 L 838.403 157.825 Q 836.503 158.278 834.512 158.278 L 834.512 158.278 L 834.512 158.278 Q 826.729 158.278 826.729 151.762 L 826.729 151.762 L 826.729 102.891 Z  M 325.183 152.124 L 317.038 128.051 L 268.53 128.051 L 268.53 128.051 Q 267.263 131.671 265.815 135.924 L 265.815 135.924 L 265.815 135.924 Q 264.367 140.178 263.01 144.25 L 263.01 144.25 L 263.01 144.25 Q 261.652 148.323 260.385 151.852 L 260.385 151.852 L 260.385 151.852 Q 259.118 155.382 258.394 157.735 L 258.394 157.735 L 258.394 157.735 Q 255.86 158.821 252.421 158.821 L 252.421 158.821 L 252.421 158.821 Q 249.525 158.821 247.263 157.282 L 247.263 157.282 L 247.263 157.282 Q 245 155.744 245 152.305 L 245 152.305 L 245 152.305 Q 245 150.676 245.543 148.956 L 245.543 148.956 L 245.543 148.956 Q 246.086 147.237 246.81 145.246 L 246.81 145.246 L 246.81 145.246 Q 249.525 137.644 253.778 125.698 L 253.778 125.698 L 253.778 125.698 Q 258.032 113.752 263.01 100.267 L 263.01 100.267 L 263.01 100.267 Q 267.987 86.783 273.146 73.117 L 273.146 73.117 L 273.146 73.117 Q 278.304 59.452 282.648 48.592 L 282.648 48.592 L 282.648 48.592 Q 284.096 47.868 286.992 47.144 L 286.992 47.144 L 286.992 47.144 Q 289.888 46.42 292.965 46.42 L 292.965 46.42 L 292.965 46.42 Q 296.585 46.42 299.933 47.506 L 299.933 47.506 L 299.933 47.506 Q 303.282 48.592 304.187 51.126 L 304.187 51.126 L 304.187 51.126 Q 308.531 61.624 313.509 75.108 L 313.509 75.108 L 313.509 75.108 Q 318.486 88.593 323.554 102.711 L 323.554 102.711 L 323.554 102.711 Q 328.622 116.829 333.238 130.494 L 333.238 130.494 L 333.238 130.494 Q 337.853 144.16 341.473 155.201 L 341.473 155.201 L 341.473 155.201 Q 340.025 156.83 338.034 157.825 L 338.034 157.825 L 338.034 157.825 Q 336.043 158.821 333.509 158.821 L 333.509 158.821 L 333.509 158.821 Q 330.07 158.821 328.26 157.282 L 328.26 157.282 L 328.26 157.282 Q 326.45 155.744 325.183 152.124 L 325.183 152.124 Z  M 293.508 58.728 L 292.784 58.728 L 292.784 58.728 Q 290.793 64.158 288.259 71.126 L 288.259 71.126 L 288.259 71.126 Q 285.725 78.095 283.01 85.697 L 283.01 85.697 L 283.01 85.697 Q 280.295 93.299 277.58 101.082 L 277.58 101.082 L 277.58 101.082 Q 274.865 108.865 272.512 115.924 L 272.512 115.924 L 313.237 115.924 L 313.237 115.924 Q 310.522 107.779 307.626 99.543 L 307.626 99.543 L 307.626 99.543 Q 304.73 91.308 302.105 83.706 L 302.105 83.706 L 302.105 83.706 Q 299.481 76.104 297.218 69.678 L 297.218 69.678 L 297.218 69.678 Q 294.956 63.253 293.508 58.728 L 293.508 58.728 Z  M 359.777 89.317 L 359.777 157.011 L 359.777 157.011 Q 358.872 157.373 357.062 157.825 L 357.062 157.825 L 357.062 157.825 Q 355.252 158.278 353.08 158.278 L 353.08 158.278 L 353.08 158.278 Q 345.297 158.278 345.297 151.762 L 345.297 151.762 L 345.297 90.403 L 345.297 90.403 Q 345.297 86.24 346.836 83.796 L 346.836 83.796 L 346.836 83.796 Q 348.374 81.353 351.994 79 L 351.994 79 L 351.994 79 Q 356.7 75.923 364.755 73.66 L 364.755 73.66 L 364.755 73.66 Q 372.809 71.398 382.945 71.398 L 382.945 71.398 L 382.945 71.398 Q 397.425 71.398 397.425 78.638 L 397.425 78.638 L 397.425 78.638 Q 397.425 80.448 396.882 81.986 L 396.882 81.986 L 396.882 81.986 Q 396.339 83.525 395.434 84.611 L 395.434 84.611 L 395.434 84.611 Q 393.624 84.249 390.728 83.887 L 390.728 83.887 L 390.728 83.887 Q 387.832 83.525 384.936 83.525 L 384.936 83.525 L 384.936 83.525 Q 376.61 83.525 370.275 85.244 L 370.275 85.244 L 370.275 85.244 Q 363.94 86.964 359.777 89.317 L 359.777 89.317 Z  M 429.037 159.726 L 429.037 159.726 L 429.037 159.726 Q 416.367 159.726 408.493 154.115 L 408.493 154.115 L 408.493 154.115 Q 400.62 148.504 400.62 135.472 L 400.62 135.472 L 400.62 49.497 L 400.62 49.497 Q 401.525 49.135 403.425 48.682 L 403.425 48.682 L 403.425 48.682 Q 405.326 48.23 407.498 48.23 L 407.498 48.23 L 407.498 48.23 Q 415.1 48.23 415.1 54.746 L 415.1 54.746 L 415.1 75.561 L 444.784 75.561 L 444.784 75.561 Q 445.327 76.466 445.87 78.004 L 445.87 78.004 L 445.87 78.004 Q 446.413 79.543 446.413 81.353 L 446.413 81.353 L 446.413 81.353 Q 446.413 87.507 440.983 87.507 L 440.983 87.507 L 415.1 87.507 L 415.1 134.567 L 415.1 134.567 Q 415.1 141.807 419.173 144.793 L 419.173 144.793 L 419.173 144.793 Q 423.245 147.779 430.666 147.779 L 430.666 147.779 L 430.666 147.779 Q 433.743 147.779 437.544 146.694 L 437.544 146.694 L 437.544 146.694 Q 441.345 145.608 443.879 144.16 L 443.879 144.16 L 443.879 144.16 Q 444.965 145.246 445.87 146.875 L 445.87 146.875 L 445.87 146.875 Q 446.775 148.504 446.775 150.676 L 446.775 150.676 L 446.775 150.676 Q 446.775 154.658 442.069 157.192 L 442.069 157.192 L 442.069 157.192 Q 437.363 159.726 429.037 159.726 Z " fill="rgb(255,255,255)"/><path d=" M 158.16 102.344 L 131.936 103.138 L 131.936 103.138 Q 131.217 101.119 130.489 99.091 L 130.489 99.091 L 130.489 99.091 Q 125.421 84.973 120.443 71.488 L 120.443 71.488 L 120.443 71.488 Q 115.466 58.004 111.122 47.506 L 111.122 47.506 L 111.122 47.506 Q 110.217 44.972 106.868 43.886 L 106.868 43.886 L 106.868 43.886 Q 103.52 42.8 99.9 42.8 L 99.9 42.8 L 99.9 42.8 Q 96.823 42.8 93.927 43.524 L 93.927 43.524 L 93.927 43.524 Q 91.031 44.248 89.583 44.972 L 89.583 44.972 L 89.583 44.972 Q 85.239 55.832 80.08 69.497 L 80.08 69.497 L 80.08 69.497 Q 74.922 83.163 69.944 96.647 L 69.944 96.647 L 69.944 96.647 Q 68.353 100.958 66.836 105.111 L 66.836 105.111 L 26.505 106.333 L 26.505 106.333 C 25.309 106.333 24.338 107.304 24.338 108.5 L 24.338 108.5 C 24.338 109.696 25.309 110.667 26.505 110.667 L 26.505 110.667 L 151.218 114.446 C 151.506 114.587 151.829 114.667 152.171 114.667 L 152.171 114.667 L 158.16 114.667 L 158.16 121.36 C 158.16 122.15 158.47 122.92 159.04 123.48 C 159.6 124.04 160.36 124.36 161.16 124.36 C 161.95 124.36 162.72 124.04 163.28 123.48 C 163.84 122.92 164.16 122.15 164.16 121.36 L 164.16 121.36 L 164.16 114.838 L 169.105 114.988 L 169.105 114.988 C 169.237 114.996 169.37 115 169.505 115 L 169.505 115 C 173.092 115 176.005 112.087 176.005 108.5 C 176.005 104.913 173.092 102 169.505 102 L 169.505 102 C 169.37 102 169.237 102.004 169.105 102.012 L 167.16 102.071 L 167.16 106.333 L 168.022 106.333 L 168.022 106.333 C 169.217 106.333 170.188 107.304 170.188 108.5 C 170.188 109.423 169.61 110.211 168.785 110.5 C 168.556 110.384 168.295 110.333 168.022 110.333 L 168.022 110.333 L 164.16 110.333 L 164.16 99 L 164.16 99 C 164.16 95.31 165.63 91.76 168.24 89.15 C 170.85 86.54 174.39 85.08 178.08 85.08 C 181.77 85.08 185.32 86.54 187.93 89.15 C 190.54 91.76 192 95.31 192 99 L 192 99 L 192 99 L 192 99 C 192.01 111.43 189.53 123.73 184.69 135.18 C 180.01 146.23 173.24 156.27 164.75 164.75 C 156.27 173.24 146.23 180.01 135.19 184.69 C 123.74 189.52 111.43 192.01 99 192 C 86.58 192.01 74.27 189.52 62.82 184.69 C 51.77 180.01 41.74 173.24 33.26 164.75 C 24.77 156.27 18 146.23 13.32 135.18 C 8.48 123.73 5.99 111.43 6 99 C 5.99 86.57 8.48 74.27 13.32 62.82 C 18 51.77 24.77 41.73 33.26 33.25 C 41.74 24.76 51.77 17.99 62.82 13.31 C 74.27 8.48 86.58 5.99 99 6 C 109.18 5.99 119.3 7.66 128.94 10.93 C 138.24 14.1 146.97 18.72 154.82 24.63 C 170.58 36.46 182.19 53 187.95 71.84 C 188.18 72.6 188.71 73.24 189.41 73.61 C 190.11 73.99 190.94 74.07 191.7 73.83 C 192.46 73.6 193.1 73.07 193.47 72.37 C 193.84 71.67 193.92 70.85 193.69 70.09 C 187.55 50.03 175.2 32.43 158.43 19.84 C 150.07 13.54 140.77 8.62 130.87 5.25 C 120.61 1.77 109.84 -0.01 99 0 C 85.77 -0.01 72.67 2.64 60.48 7.79 C 48.73 12.77 38.04 19.98 29.01 29.01 C 19.98 38.04 12.77 48.72 7.79 60.48 C 2.64 72.67 -0.01 85.77 0 99 C -0.01 112.23 2.64 125.33 7.79 137.52 C 12.77 149.28 19.98 159.96 29.01 168.99 C 38.04 178.02 48.73 185.23 60.48 190.21 C 72.67 195.36 85.77 198.01 99 198 C 112.24 198.01 125.34 195.36 137.53 190.21 C 149.28 185.23 159.97 178.02 168.99 168.99 C 178.03 159.96 185.24 149.28 190.22 137.52 C 195.37 125.33 198.01 112.23 198 99 L 198 99 C 198 93.72 195.9 88.65 192.17 84.91 C 188.43 81.18 183.36 79.08 178.08 79.08 C 172.8 79.08 167.73 81.18 163.99 84.91 C 160.26 88.65 158.16 93.72 158.16 99 L 158.16 102.344 Z  M 158.16 106.333 L 152.171 106.333 L 152.171 106.333 L 152.171 106.333 C 150.975 106.333 150.005 107.304 150.005 108.5 L 150.005 108.5 C 150.005 109.423 150.582 110.211 151.408 110.5 C 151.636 110.384 151.898 110.333 152.171 110.333 L 152.171 110.333 L 152.171 110.333 L 152.171 110.333 L 158.16 110.333 L 158.16 106.333 Z  M 117.222 103.584 Q 115.911 99.764 114.561 95.923 L 114.561 95.923 L 114.561 95.923 Q 111.665 87.688 109.04 80.086 L 109.04 80.086 L 109.04 80.086 Q 106.416 72.484 104.153 66.058 L 104.153 66.058 L 104.153 66.058 Q 101.891 59.633 100.443 55.108 L 100.443 55.108 L 99.719 55.108 L 99.719 55.108 Q 97.728 60.538 95.194 67.506 L 95.194 67.506 L 95.194 67.506 Q 92.66 74.475 89.945 82.077 L 89.945 82.077 L 89.945 82.077 Q 87.23 89.679 84.515 97.462 L 84.515 97.462 L 84.515 97.462 Q 83.233 101.137 82.031 104.651 L 117.222 103.584 L 117.222 103.584 Z  M 78.157 116.232 L 75.465 124.431 L 75.465 124.431 Q 74.198 128.051 72.75 132.304 L 72.75 132.304 L 72.75 132.304 Q 71.302 136.558 69.944 140.63 L 69.944 140.63 L 69.944 140.63 Q 68.587 144.703 67.32 148.232 L 67.32 148.232 L 67.32 148.232 Q 66.053 151.762 65.329 154.115 L 65.329 154.115 L 65.329 154.115 Q 62.795 155.201 59.356 155.201 L 59.356 155.201 L 59.356 155.201 Q 56.46 155.201 54.197 153.662 L 54.197 153.662 L 54.197 153.662 Q 51.935 152.124 51.935 148.685 L 51.935 148.685 L 51.935 148.685 Q 51.935 147.056 52.478 145.336 L 52.478 145.336 L 52.478 145.336 Q 53.021 143.617 53.745 141.626 L 53.745 141.626 L 53.745 141.626 Q 56.46 134.024 60.713 122.078 L 60.713 122.078 L 60.713 122.078 Q 61.817 118.976 62.97 115.772 L 78.157 116.232 L 78.157 116.232 L 78.157 116.232 Z  M 137.151 118.02 Q 138.685 122.47 140.172 126.874 L 140.172 126.874 L 140.172 126.874 Q 144.788 140.54 148.408 151.581 L 148.408 151.581 L 148.408 151.581 Q 146.96 153.21 144.969 154.205 L 144.969 154.205 L 144.969 154.205 Q 142.978 155.201 140.444 155.201 L 140.444 155.201 L 140.444 155.201 Q 137.005 155.201 135.195 153.662 L 135.195 153.662 L 135.195 153.662 Q 133.385 152.124 132.118 148.504 L 132.118 148.504 L 123.973 124.431 L 121.818 117.555 L 137.151 118.02 L 137.151 118.02 L 137.151 118.02 Z " fill-rule="evenodd" fill="rgb(255,255,255)"/></g></svg>